<?xml version="1.0" encoding="UTF-8" standalone="no"?>
<svg width="24px" height="26px" viewBox="0 0 24 26" version="1.1" xmlns="http://www.w3.org/2000/svg" xmlns:xlink="http://www.w3.org/1999/xlink">
    <!-- Generator: Sketch 43.2 (39069) - http://www.bohemiancoding.com/sketch -->
    <title>arrow-left - FontAwesome</title>
    <desc>Created with Sketch.</desc>
    <defs></defs>
    <g id="layout" stroke="none" stroke-width="1" fill="none" fill-rule="evenodd">
        <g id="home" transform="translate(-4.000000, -253.000000)" fill="#D12A2E">
            <g id="HERO" transform="translate(-40.000000, 73.000000)">
                <g id="LEFT" transform="translate(0.000000, 152.000000)">
                    <path d="M67.870991,39.5949447 C67.870991,38.4922087 67.1412392,37.5192063 65.9736364,37.5192063 L54.5570755,37.5192063 L59.3085703,32.7677115 C59.6977713,32.3785106 59.9248051,31.8433593 59.9248051,31.2919913 C59.9248051,30.7406233 59.6977713,30.205472 59.3085703,29.8162711 L58.0923174,28.6162348 C57.7031164,28.2270339 57.1841818,28 56.6328139,28 C56.0814459,28 55.5462946,28.2270339 55.1570936,28.6162348 L44.6000181,39.1570936 C44.2270339,39.5462946 44,40.0814459 44,40.6328139 C44,41.1841818 44.2270339,41.7193331 44.6000181,42.0923174 L55.1570936,52.6656096 C55.5462946,53.0385938 56.0814459,53.2656277 56.6328139,53.2656277 C57.1841818,53.2656277 57.7193331,53.0385938 58.0923174,52.6656096 L59.3085703,51.4331399 C59.6977713,51.0601557 59.9248051,50.5250044 59.9248051,49.9736364 C59.9248051,49.4222684 59.6977713,48.8871171 59.3085703,48.5141329 L54.5570755,43.7464214 L65.9736364,43.7464214 C67.1412392,43.7464214 67.870991,42.773419 67.870991,41.670683 L67.870991,39.5949447 Z" id="arrow-left---FontAwesome"></path>
                </g>
            </g>
        </g>
    </g>
</svg>