<?xml version="1.0" encoding="UTF-8" standalone="no"?>
<svg width="214px" height="221px" viewBox="0 0 214 221" version="1.1" xmlns="http://www.w3.org/2000/svg" xmlns:xlink="http://www.w3.org/1999/xlink">
    <!-- Generator: Sketch 43.2 (39069) - http://www.bohemiancoding.com/sketch -->
    <title>sign</title>
    <desc>Created with Sketch.</desc>
    <defs>
        <rect id="path-1" x="0" y="0" width="238" height="260"></rect>
        <rect id="path-3" x="0" y="0" width="238" height="287"></rect>
    </defs>
    <g id="Page-1" stroke="none" stroke-width="1" fill="none" fill-rule="evenodd">
        <g id="sign" transform="translate(-5.000000, -39.000000)">
            <mask id="mask-2" fill="white">
                <use xlink:href="#path-1"></use>
            </mask>
            <g id="path-1"></g>
            <g id="Group" mask="url(#mask-2)">
                <g transform="translate(-2.000000, 26.000000)" id="Group-Clipped">
                    <g>
                        <mask id="mask-4" fill="white">
                            <use xlink:href="#path-3"></use>
                        </mask>
                        <g id="path-3"></g>
                        <g id="Group" mask="url(#mask-4)">
                            <g transform="translate(-14.000000, -1.000000)">
                                <g transform="translate(118.325039, 144.236218) rotate(9.000000) translate(-118.325039, -144.236218) translate(19.325039, 14.736218)">
                                    <path d="M80,129 L83,129 L83,154.018936 L84.4161264,156.882325 L83,160.049615 L83,195.609199 C83,195.609199 85.4185996,197.838578 85.4185996,199.247084 C85.4185996,200.65559 83,203.667141 83,203.667141 L83,256 L80,256 L80,203.148756 L80.7747815,199.982592 L80,195.090814 L80,158.595427 L80.6672942,156.463616 L80,154.48824 L80,129 Z" id="Rectangle-7-Copy-9" fill="#5E4024"></path>
                                    <polygon id="Rectangle-7-Copy-8" fill="#5E4024" points="80.1564345 2.98768834 83.1564345 0.987688341 83.1564345 14.9876883 80.1564345 14.9876883"></polygon>
                                    <polygon id="Rectangle-7-Copy-5" fill="#B07645" points="83 129 120 129 120 161.25 119 168.160714 120 175.071429 120 258 83 258 83 202.679452 84.4309112 199.403518 83 195.609199 83 158.126124 84.7744821 156.825567 83 155.163059"></polygon>
                                    <path d="M1,17 L5.52946184,14.4695806 L11,14 L10.9923458,132.062765 L4.90978132,132.013683 L0.333290095,128.688667 L0.41777834,114.535016 L2.45591143,110.128105 C2.45591143,110.128105 0.832395611,108.02402 0.842485227,106.333786 C0.852574843,104.643552 0.695219476,68.0574845 0.695219476,68.0574845 C0.695219476,68.0574845 1.49416876,66.527988 1.49892501,65.7312112 C1.50368126,64.9344344 0.723499196,63.3200053 0.723499196,63.3200053 L0.881848232,36.7930366 L2.41915217,33.1865775 L0.914731164,31.2844175 L1,17 Z" id="Rectangle-7" fill="#5E4024"></path>
                                    <polygon id="Rectangle-7-Copy-6" fill="#37362B" opacity="0.792742301" points="80 129 120 129 120 134 79.8268506 138.372357"></polygon>
                                    <path d="M83.1564345,0.987688341 L102.635788,1.11437971 C110.537295,-0.137096005 120.156434,0.987688341 120.156434,0.987688341 L120.156434,14.9876883 L83.1564345,14.9876883 L83.1564345,0.987688341 Z" id="Rectangle-7-Copy-7" fill="#B07645"></path>
                                    <path d="M5,14 L33,14 L42,15 L50,14 L143,14 L147,15 L151,14 L198,14 L198,26 C198,26 196,28.84375 196,30 C196,31.15625 198,32 198,32 L198,51 L196,56 L198,58 L198,119 L196,122 L198,124 L198,132 L45,132 L39,131 L33,132 L5,132 L5,115 L7,110 L5,107 L5,67 L7,66 L5,64 L5,35 L7,32 L5,31 L5,14 Z" id="Rectangle-7-Copy" fill="#B07645"></path>
                                    <path d="M40.1020404,91.0000004 C40.1020404,91.0000004 38.6020404,105 39.1020404,108 C39.6020404,111 40.1020404,129 40.1020404,129 C40.1020404,129 43.1020404,106 43.1020404,101 C43.1020404,96.0000004 40.1020404,91.0000004 40.1020404,91.0000004 Z" id="Path-3-Copy-2" fill="#C78A56" transform="translate(41.051020, 110.000000) rotate(90.000000) translate(-41.051020, -110.000000) "></path>
                                    <path d="M160.10204,11.0000006 C160.10204,11.0000006 158.60204,25.0000006 159.10204,28.0000006 C159.60204,31.0000006 160.10204,49.0000006 160.10204,49.0000006 C160.10204,49.0000006 163.10204,26.0000006 163.10204,21.0000006 C163.10204,16.0000006 160.10204,11.0000006 160.10204,11.0000006 Z" id="Path-3-Copy-3" fill="#C78A56" transform="translate(161.051020, 30.000001) rotate(90.000000) translate(-161.051020, -30.000001) "></path>
                                    <path d="M144.550492,104.584985 C144.550492,104.584985 143.050492,118.584985 143.550492,121.584985 C144.050492,124.584985 144.550492,142.584985 144.550492,142.584985 C144.550492,142.584985 147.550492,119.584985 147.550492,114.584985 C147.550492,109.584985 144.550492,104.584985 144.550492,104.584985 Z" id="Path-3-Copy-6" fill="#C78A56" transform="translate(145.499472, 123.584985) rotate(90.000000) translate(-145.499472, -123.584985) "></path>
                                    <path d="M145.625647,48.4489801 C145.625647,48.4489801 144.162961,80.5016117 144.650523,87.3700327 C145.138085,94.2384538 145.625647,135.44898 145.625647,135.44898 C145.625647,135.44898 148.55102,82.7910854 148.55102,71.3437169 C148.55102,59.8963485 145.625647,48.4489801 145.625647,48.4489801 Z" id="Path-3-Copy-4" fill="#C78A56" transform="translate(146.551020, 91.948980) rotate(90.000000) translate(-146.551020, -91.948980) "></path>
                                    <path d="M44.3314806,-12.5255096 C44.3314806,-12.5255096 43.2344656,12.508325 43.6001373,17.8727181 C43.9658089,23.2371112 44.3314806,55.42347 44.3314806,55.42347 C44.3314806,55.42347 46.5255104,14.296456 46.5255104,5.35580082 C46.5255104,-3.58485438 44.3314806,-12.5255096 44.3314806,-12.5255096 Z" id="Path-3-Copy-5" fill="#C78A56" transform="translate(45.025510, 21.448980) rotate(90.000000) translate(-45.025510, -21.448980) "></path>
                                    <g id="CLICK-HERE-TO-ENTER" transform="translate(12.000000, 30.000000)" fill="#FFFFFF">
                                        <g id="text-6-link" font-size="19" font-family="Gotham-Black, Gotham" font-weight="700">
                                            <text id="CLICK-HERE-TO">
                                                <tspan x="12.9239748" y="15.4913054">CLICK HERE TO</tspan>
                                            </text>
                                            <text id="ENTER-THE-FINAL">
                                                <tspan x="0.1084748" y="41.4913054">ENTER THE FINAL</tspan>
                                            </text>
                                            <text id="PRIZE-DRAW">
                                                <tspan x="25.3784748" y="67.4913054">PRIZE DRAW</tspan>
                                            </text>
                                        </g>
                                        <g id="text-6-link" transform="translate(1.000000, 1.000000)">
                                            <path d="M19.5239748,14.7573054 C22.4499748,14.7573054 24.1409748,13.4843054 25.3949748,11.7553054 L22.6209748,9.7793054 C21.8229748,10.7483054 21.0059748,11.3943054 19.6189748,11.3943054 C17.7569748,11.3943054 16.4459748,9.8363054 16.4459748,7.8413054 L16.4459748,7.8033054 C16.4459748,5.8653054 17.7569748,4.2693054 19.6189748,4.2693054 C20.8919748,4.2693054 21.7659748,4.8963054 22.5259748,5.8273054 L25.2999748,3.6803054 C24.1219748,2.0653054 22.3739748,0.9253054 19.6569748,0.9253054 C15.6289748,0.9253054 12.6649748,3.9653054 12.6649748,7.8413054 L12.6649748,7.8793054 C12.6649748,11.8503054 15.7239748,14.7573054 19.5239748,14.7573054 Z M26.9909748,14.4913054 L37.1179748,14.4913054 L37.1179748,11.2613054 L30.6769748,11.2613054 L30.6769748,1.1913054 L26.9909748,1.1913054 L26.9909748,14.4913054 Z M38.8089748,14.4913054 L42.4949748,14.4913054 L42.4949748,1.1913054 L38.8089748,1.1913054 L38.8089748,14.4913054 Z M51.3489748,14.7573054 C54.2749748,14.7573054 55.9659748,13.4843054 57.2199748,11.7553054 L54.4459748,9.7793054 C53.6479748,10.7483054 52.8309748,11.3943054 51.4439748,11.3943054 C49.5819748,11.3943054 48.2709748,9.8363054 48.2709748,7.8413054 L48.2709748,7.8033054 C48.2709748,5.8653054 49.5819748,4.2693054 51.4439748,4.2693054 C52.7169748,4.2693054 53.5909748,4.8963054 54.3509748,5.8273054 L57.1249748,3.6803054 C55.9469748,2.0653054 54.1989748,0.9253054 51.4819748,0.9253054 C47.4539748,0.9253054 44.4899748,3.9653054 44.4899748,7.8413054 L44.4899748,7.8793054 C44.4899748,11.8503054 47.5489748,14.7573054 51.3489748,14.7573054 Z M58.8159748,14.4913054 L62.5019748,14.4913054 L62.5019748,11.0333054 L63.8509748,9.5513054 L67.2139748,14.4913054 L71.6219748,14.4913054 L66.4159748,6.8913054 L71.4509748,1.1913054 L67.0999748,1.1913054 L62.5019748,6.5873054 L62.5019748,1.1913054 L58.8159748,1.1913054 L58.8159748,14.4913054 Z M77.9489748,14.4913054 L81.6349748,14.4913054 L81.6349748,9.4373054 L86.3659748,9.4373054 L86.3659748,14.4913054 L90.0519748,14.4913054 L90.0519748,1.1913054 L86.3659748,1.1913054 L86.3659748,6.1693054 L81.6349748,6.1693054 L81.6349748,1.1913054 L77.9489748,1.1913054 L77.9489748,14.4913054 Z M92.4079748,14.4913054 L103.199975,14.4913054 L103.199975,11.3563054 L96.0559748,11.3563054 L96.0559748,9.2473054 L102.439975,9.2473054 L102.439975,6.3403054 L96.0559748,6.3403054 L96.0559748,4.3073054 L103.104975,4.3073054 L103.104975,1.1913054 L92.4079748,1.1913054 L92.4079748,14.4913054 Z M105.099975,14.4913054 L105.099975,1.1913054 L111.388975,1.1913054 C113.421975,1.1913054 114.827975,1.7233054 115.720975,2.6163054 C116.499975,3.3953054 116.898975,4.4023054 116.898975,5.7133054 L116.898975,5.7513054 C116.898975,7.8033054 115.815975,9.1523054 114.162975,9.8553054 L117.335975,14.4913054 L113.098975,14.4913054 L110.419975,10.4633054 L108.785975,10.4633054 L108.785975,14.4913054 L105.099975,14.4913054 Z M108.785975,7.5753054 L111.236975,7.5753054 C112.471975,7.5753054 113.212975,6.9673054 113.212975,5.9983054 L113.212975,5.9603054 C113.212975,4.8963054 112.433975,4.3643054 111.217975,4.3643054 L108.785975,4.3643054 L108.785975,7.5753054 Z M118.760975,14.4913054 L129.552975,14.4913054 L129.552975,11.3563054 L122.408975,11.3563054 L122.408975,9.2473054 L128.792975,9.2473054 L128.792975,6.3403054 L122.408975,6.3403054 L122.408975,4.3073054 L129.457975,4.3073054 L129.457975,1.1913054 L118.760975,1.1913054 L118.760975,14.4913054 Z M139.964975,14.4913054 L143.650975,14.4913054 L143.650975,4.4213054 L147.640975,4.4213054 L147.640975,1.1913054 L135.993975,1.1913054 L135.993975,4.4213054 L139.964975,4.4213054 L139.964975,14.4913054 Z M155.392975,14.7573054 C151.288975,14.7573054 148.248975,11.6983054 148.248975,7.8793054 L148.248975,7.8413054 C148.248975,4.0223054 151.326975,0.9253054 155.430975,0.9253054 C159.534975,0.9253054 162.574975,3.9843054 162.574975,7.8033054 L162.574975,7.8413054 C162.574975,11.6603054 159.496975,14.7573054 155.392975,14.7573054 Z M155.430975,11.4323054 C157.444975,11.4323054 158.793975,9.7983054 158.793975,7.8793054 L158.793975,7.8413054 C158.793975,5.9033054 157.425975,4.2503054 155.392975,4.2503054 C153.359975,4.2503054 152.010975,5.8843054 152.010975,7.8033054 L152.010975,7.8413054 C152.010975,9.7603054 153.397975,11.4323054 155.430975,11.4323054 Z" id="CLICK-HERE-TO"></path>
                                            <path d="M0.2864748,40.4913054 L11.0784748,40.4913054 L11.0784748,37.3563054 L3.9344748,37.3563054 L3.9344748,35.2473054 L10.3184748,35.2473054 L10.3184748,32.3403054 L3.9344748,32.3403054 L3.9344748,30.3073054 L10.9834748,30.3073054 L10.9834748,27.1913054 L0.2864748,27.1913054 L0.2864748,40.4913054 Z M12.9784748,40.4913054 L16.6264748,40.4913054 L16.6264748,33.1953054 L22.3264748,40.4913054 L25.5374748,40.4913054 L25.5374748,27.1913054 L21.8894748,27.1913054 L21.8894748,34.2213054 L16.4174748,27.1913054 L12.9784748,27.1913054 L12.9784748,40.4913054 Z M31.1424748,40.4913054 L34.8284748,40.4913054 L34.8284748,30.4213054 L38.8184748,30.4213054 L38.8184748,27.1913054 L27.1714748,27.1913054 L27.1714748,30.4213054 L31.1424748,30.4213054 L31.1424748,40.4913054 Z M40.4334748,40.4913054 L51.2254748,40.4913054 L51.2254748,37.3563054 L44.0814748,37.3563054 L44.0814748,35.2473054 L50.4654748,35.2473054 L50.4654748,32.3403054 L44.0814748,32.3403054 L44.0814748,30.3073054 L51.1304748,30.3073054 L51.1304748,27.1913054 L40.4334748,27.1913054 L40.4334748,40.4913054 Z M53.1254748,40.4913054 L53.1254748,27.1913054 L59.4144748,27.1913054 C61.4474748,27.1913054 62.8534748,27.7233054 63.7464748,28.6163054 C64.5254748,29.3953054 64.9244748,30.4023054 64.9244748,31.7133054 L64.9244748,31.7513054 C64.9244748,33.8033054 63.8414748,35.1523054 62.1884748,35.8553054 L65.3614748,40.4913054 L61.1244748,40.4913054 L58.4454748,36.4633054 L56.8114748,36.4633054 L56.8114748,40.4913054 L53.1254748,40.4913054 Z M56.8114748,33.5753054 L59.2624748,33.5753054 C60.4974748,33.5753054 61.2384748,32.9673054 61.2384748,31.9983054 L61.2384748,31.9603054 C61.2384748,30.8963054 60.4594748,30.3643054 59.2434748,30.3643054 L56.8114748,30.3643054 L56.8114748,33.5753054 Z M75.2984748,40.4913054 L78.9844748,40.4913054 L78.9844748,30.4213054 L82.9744748,30.4213054 L82.9744748,27.1913054 L71.3274748,27.1913054 L71.3274748,30.4213054 L75.2984748,30.4213054 L75.2984748,40.4913054 Z M84.5894748,40.4913054 L88.2754748,40.4913054 L88.2754748,35.4373054 L93.0064748,35.4373054 L93.0064748,40.4913054 L96.6924748,40.4913054 L96.6924748,27.1913054 L93.0064748,27.1913054 L93.0064748,32.1693054 L88.2754748,32.1693054 L88.2754748,27.1913054 L84.5894748,27.1913054 L84.5894748,40.4913054 Z M99.0484748,40.4913054 L109.840475,40.4913054 L109.840475,37.3563054 L102.696475,37.3563054 L102.696475,35.2473054 L109.080475,35.2473054 L109.080475,32.3403054 L102.696475,32.3403054 L102.696475,30.3073054 L109.745475,30.3073054 L109.745475,27.1913054 L99.0484748,27.1913054 L99.0484748,40.4913054 Z M117.003475,40.4913054 L120.689475,40.4913054 L120.689475,35.7413054 L126.978475,35.7413054 L126.978475,32.6823054 L120.689475,32.6823054 L120.689475,30.4213054 L127.643475,30.4213054 L127.643475,27.1913054 L117.003475,27.1913054 L117.003475,40.4913054 Z M129.429475,40.4913054 L133.115475,40.4913054 L133.115475,27.1913054 L129.429475,27.1913054 L129.429475,40.4913054 Z M135.547475,40.4913054 L139.195475,40.4913054 L139.195475,33.1953054 L144.895475,40.4913054 L148.106475,40.4913054 L148.106475,27.1913054 L144.458475,27.1913054 L144.458475,34.2213054 L138.986475,27.1913054 L135.547475,27.1913054 L135.547475,40.4913054 Z M149.417475,40.4913054 L155.060475,27.0963054 L158.613475,27.0963054 L164.275475,40.4913054 L160.323475,40.4913054 L159.373475,38.0973054 L154.224475,38.0973054 L153.274475,40.4913054 L149.417475,40.4913054 Z M155.307475,35.2283054 L158.290475,35.2283054 L156.808475,31.4663054 L155.307475,35.2283054 Z M165.567475,40.4913054 L175.694475,40.4913054 L175.694475,37.2613054 L169.253475,37.2613054 L169.253475,27.1913054 L165.567475,27.1913054 L165.567475,40.4913054 Z" id="ENTER-THE-FINAL"></path>
                                            <path d="M25.5564748,66.4913054 L25.5564748,53.1913054 L31.2754748,53.1913054 C34.6194748,53.1913054 36.7854748,54.9203054 36.7854748,57.8463054 L36.7854748,57.8843054 C36.7854748,61.0383054 34.3724748,62.6913054 31.0854748,62.6913054 L29.2424748,62.6913054 L29.2424748,66.4913054 L25.5564748,66.4913054 Z M29.2424748,59.8033054 L31.0094748,59.8033054 C32.3014748,59.8033054 33.1184748,59.1003054 33.1184748,58.0553054 L33.1184748,58.0173054 C33.1184748,56.8773054 32.3014748,56.2883054 30.9904748,56.2883054 L29.2424748,56.2883054 L29.2424748,59.8033054 Z M38.3434748,66.4913054 L38.3434748,53.1913054 L44.6324748,53.1913054 C46.6654748,53.1913054 48.0714748,53.7233054 48.9644748,54.6163054 C49.7434748,55.3953054 50.1424748,56.4023054 50.1424748,57.7133054 L50.1424748,57.7513054 C50.1424748,59.8033054 49.0594748,61.1523054 47.4064748,61.8553054 L50.5794748,66.4913054 L46.3424748,66.4913054 L43.6634748,62.4633054 L42.0294748,62.4633054 L42.0294748,66.4913054 L38.3434748,66.4913054 Z M42.0294748,59.5753054 L44.4804748,59.5753054 C45.7154748,59.5753054 46.4564748,58.9673054 46.4564748,57.9983054 L46.4564748,57.9603054 C46.4564748,56.8963054 45.6774748,56.3643054 44.4614748,56.3643054 L42.0294748,56.3643054 L42.0294748,59.5753054 Z M52.0994748,66.4913054 L55.7854748,66.4913054 L55.7854748,53.1913054 L52.0994748,53.1913054 L52.0994748,66.4913054 Z M57.8184748,66.4913054 L69.5604748,66.4913054 L69.5604748,63.3753054 L62.8914748,63.3753054 L69.5604748,55.8513054 L69.5604748,53.1913054 L58.0464748,53.1913054 L58.0464748,56.2883054 L64.4874748,56.2883054 L57.8184748,63.8123054 L57.8184748,66.4913054 Z M71.4794748,66.4913054 L82.2714748,66.4913054 L82.2714748,63.3563054 L75.1274748,63.3563054 L75.1274748,61.2473054 L81.5114748,61.2473054 L81.5114748,58.3403054 L75.1274748,58.3403054 L75.1274748,56.3073054 L82.1764748,56.3073054 L82.1764748,53.1913054 L71.4794748,53.1913054 L71.4794748,66.4913054 Z M89.4344748,66.4913054 L89.4344748,53.1913054 L94.5834748,53.1913054 C99.3144748,53.1913054 102.069475,55.9273054 102.069475,59.7653054 L102.069475,59.8033054 C102.069475,63.6413054 99.2764748,66.4913054 94.5074748,66.4913054 L89.4344748,66.4913054 Z M94.6214748,56.4403054 L93.1204748,56.4403054 L93.1204748,63.2233054 L94.6214748,63.2233054 C96.8444748,63.2233054 98.3074748,62.0073054 98.3074748,59.8603054 L98.3074748,59.8223054 C98.3074748,57.6943054 96.8444748,56.4403054 94.6214748,56.4403054 Z M103.988475,66.4913054 L103.988475,53.1913054 L110.277475,53.1913054 C112.310475,53.1913054 113.716475,53.7233054 114.609475,54.6163054 C115.388475,55.3953054 115.787475,56.4023054 115.787475,57.7133054 L115.787475,57.7513054 C115.787475,59.8033054 114.704475,61.1523054 113.051475,61.8553054 L116.224475,66.4913054 L111.987475,66.4913054 L109.308475,62.4633054 L107.674475,62.4633054 L107.674475,66.4913054 L103.988475,66.4913054 Z M107.674475,59.5753054 L110.125475,59.5753054 C111.360475,59.5753054 112.101475,58.9673054 112.101475,57.9983054 L112.101475,57.9603054 C112.101475,56.8963054 111.322475,56.3643054 110.106475,56.3643054 L107.674475,56.3643054 L107.674475,59.5753054 Z M116.357475,66.4913054 L122.000475,53.0963054 L125.553475,53.0963054 L131.215475,66.4913054 L127.263475,66.4913054 L126.313475,64.0973054 L121.164475,64.0973054 L120.214475,66.4913054 L116.357475,66.4913054 Z M122.247475,61.2283054 L125.230475,61.2283054 L123.748475,57.4663054 L122.247475,61.2283054 Z M134.350475,66.5863054 L129.904475,53.1913054 L133.799475,53.1913054 L136.117475,60.8863054 L138.682475,53.1533054 L141.855475,53.1533054 L144.420475,60.8863054 L146.738475,53.1913054 L150.557475,53.1913054 L146.111475,66.5863054 L142.900475,66.5863054 L140.240475,58.9293054 L137.561475,66.5863054 L134.350475,66.5863054 Z" id="PRIZE-DRAW"></path>
                                        </g>
                                    </g>
                                    <path d="M95.1020408,153 C95.1020408,153 93.6020408,167 94.1020408,170 C94.6020408,173 95.1020408,191 95.1020408,191 C95.1020408,191 98.1020408,168 98.1020408,163 C98.1020408,158 95.1020408,153 95.1020408,153 Z" id="Path-3" fill="#C78A56"></path>
                                    <path d="M108.102041,178 C108.102041,178 106.602041,203.789474 107.102041,209.315789 C107.602041,214.842105 108.102041,248 108.102041,248 C108.102041,248 111.102041,205.631579 111.102041,196.421053 C111.102041,187.210526 108.102041,178 108.102041,178 Z" id="Path-3-Copy" fill="#C78A56"></path>
                                </g>
                            </g>
                        </g>
                    </g>
                </g>
            </g>
        </g>
    </g>
</svg>