<?xml version="1.0" encoding="UTF-8" standalone="no"?>
<svg width="214px" height="221px" viewBox="0 0 214 221" version="1.1" xmlns="http://www.w3.org/2000/svg" xmlns:xlink="http://www.w3.org/1999/xlink">
    <!-- Generator: Sketch 43.2 (39069) - http://www.bohemiancoding.com/sketch -->
    <title>button</title>
    <desc>Created with Sketch.</desc>
    <defs>
        <rect id="path-1" x="0" y="0" width="238" height="260"></rect>
        <rect id="path-3" x="0" y="0" width="238" height="287"></rect>
        <filter x="0.0%" y="0.0%" width="100.0%" height="100.0%" filterUnits="objectBoundingBox" id="filter-5">
            <feGaussianBlur stdDeviation="0" in="SourceGraphic"></feGaussianBlur>
        </filter>
        <text id="text-6" font-family="Gotham-Black, Gotham" font-size="19" font-weight="700" line-spacing="26" fill="#FFFFFF">
            <tspan x="24.9239748" y="45.4913054">CLICK HERE TO </tspan>
            <tspan x="12.1084748" y="71.4913054">ENTER THE FINAL </tspan>
            <tspan x="37.3784748" y="97.4913054">PRIZE DRAW</tspan>
        </text>
        <filter x="-1.1%" y="-2.6%" width="254.1%" height="110.3%" filterUnits="objectBoundingBox" id="filter-7">
            <feOffset dx="2" dy="2" in="SourceAlpha" result="shadowOffsetOuter1"></feOffset>
            <feGaussianBlur stdDeviation="1" in="shadowOffsetOuter1" result="shadowBlurOuter1"></feGaussianBlur>
            <feColorMatrix values="0 0 0 0 0   0 0 0 0 0   0 0 0 0 0  0 0 0 0.429574275 0" type="matrix" in="shadowBlurOuter1"></feColorMatrix>
        </filter>
    </defs>
    <g id="layout" stroke="none" stroke-width="1" fill="none" fill-rule="evenodd">
        <g id="home" transform="translate(-794.000000, -1123.000000)">
            <g id="button" transform="translate(789.000000, 1084.000000)">
                <mask id="mask-2" fill="white">
                    <use xlink:href="#path-1"></use>
                </mask>
                <g id="Mask"></g>
                <g mask="url(#mask-2)">
                    <g transform="translate(-2.000000, 26.000000)">
                        <mask id="mask-4" fill="white">
                            <use xlink:href="#path-3"></use>
                        </mask>
                        <g id="Mask" stroke="none" fill="none"></g>
                        <g id="Group" stroke="none" stroke-width="1" fill="none" fill-rule="evenodd" mask="url(#mask-4)">
                            <g transform="translate(104.325039, 143.236218) rotate(9.000000) translate(-104.325039, -143.236218) translate(5.325039, 13.736218)">
                                <path d="M80,129 L83,129 L83,154.018936 L84.4161264,156.882325 L83,160.049615 L83,195.609199 C83,195.609199 85.4185996,197.838578 85.4185996,199.247084 C85.4185996,200.65559 83,203.667141 83,203.667141 L83,256 L80,256 L80,203.148756 L80.7747815,199.982592 L80,195.090814 L80,158.595427 L80.6672942,156.463616 L80,154.48824 L80,129 Z" id="Rectangle-7-Copy-9" fill="#5E4024" fill-rule="evenodd"></path>
                                <polygon id="Rectangle-7-Copy-8" fill="#5E4024" fill-rule="evenodd" points="80.1564345 2.98768834 83.1564345 0.987688341 83.1564345 14.9876883 80.1564345 14.9876883"></polygon>
                                <polygon id="Rectangle-7-Copy-5" fill="#B07645" fill-rule="evenodd" points="83 129 120 129 120 161.25 119 168.160714 120 175.071429 120 258 83 258 83 202.679452 84.4309112 199.403518 83 195.609199 83 158.126124 84.7744821 156.825567 83 155.163059"></polygon>
                                <path d="M1,17 L5.52946184,14.4695806 L11,14 L10.9923458,132.062765 L4.90978132,132.013683 L0.333290095,128.688667 L0.41777834,114.535016 L2.45591143,110.128105 C2.45591143,110.128105 0.832395611,108.02402 0.842485227,106.333786 C0.852574843,104.643552 0.695219476,68.0574845 0.695219476,68.0574845 C0.695219476,68.0574845 1.49416876,66.527988 1.49892501,65.7312112 C1.50368126,64.9344344 0.723499196,63.3200053 0.723499196,63.3200053 L0.881848232,36.7930366 L2.41915217,33.1865775 L0.914731164,31.2844175 L1,17 Z" id="Rectangle-7" fill="#5E4024" fill-rule="evenodd"></path>
                                <polygon id="Rectangle-7-Copy-6" fill="#37362B" fill-rule="evenodd" opacity="0.792742301" filter="url(#filter-5)" points="80 129 120 129 120 134 79.8268506 138.372357"></polygon>
                                <path d="M83.1564345,0.987688341 L102.635788,1.11437971 C110.537295,-0.137096005 120.156434,0.987688341 120.156434,0.987688341 L120.156434,14.9876883 L83.1564345,14.9876883 L83.1564345,0.987688341 Z" id="Rectangle-7-Copy-7" fill="#B07645" fill-rule="evenodd"></path>
                                <path d="M5,14 L33,14 L42,15 L50,14 L143,14 L147,15 L151,14 L198,14 L198,26 C198,26 196,28.84375 196,30 C196,31.15625 198,32 198,32 L198,51 L196,56 L198,58 L198,119 L196,122 L198,124 L198,132 L45,132 L39,131 L33,132 L5,132 L5,115 L7,110 L5,107 L5,67 L7,66 L5,64 L5,35 L7,32 L5,31 L5,14 Z" id="Rectangle-7-Copy" fill="#B07645" fill-rule="evenodd"></path>
                                <path d="M40.1020408,91 C40.1020408,91 38.6020408,105 39.1020408,108 C39.6020408,111 40.1020408,129 40.1020408,129 C40.1020408,129 43.1020408,106 43.1020408,101 C43.1020408,96 40.1020408,91 40.1020408,91 Z" id="Path-3-Copy-2" fill="#C78A56" fill-rule="evenodd" transform="translate(41.051020, 110.000000) rotate(-270.000000) translate(-41.051020, -110.000000) "></path>
                                <path d="M160.102041,11 C160.102041,11 158.602041,25 159.102041,28 C159.602041,31 160.102041,49 160.102041,49 C160.102041,49 163.102041,26 163.102041,21 C163.102041,16 160.102041,11 160.102041,11 Z" id="Path-3-Copy-3" fill="#C78A56" fill-rule="evenodd" transform="translate(161.051020, 30.000000) rotate(-270.000000) translate(-161.051020, -30.000000) "></path>
                                <path d="M144.550492,104.584985 C144.550492,104.584985 143.050492,118.584985 143.550492,121.584985 C144.050492,124.584985 144.550492,142.584985 144.550492,142.584985 C144.550492,142.584985 147.550492,119.584985 147.550492,114.584985 C147.550492,109.584985 144.550492,104.584985 144.550492,104.584985 Z" id="Path-3-Copy-6" fill="#C78A56" fill-rule="evenodd" transform="translate(145.499472, 123.584985) rotate(-270.000000) translate(-145.499472, -123.584985) "></path>
                                <path d="M145.625647,48.4489796 C145.625647,48.4489796 144.162961,80.5016112 144.650523,87.3700322 C145.138085,94.2384533 145.625647,135.44898 145.625647,135.44898 C145.625647,135.44898 148.55102,82.7910849 148.55102,71.3437164 C148.55102,59.896348 145.625647,48.4489796 145.625647,48.4489796 Z" id="Path-3-Copy-4" fill="#C78A56" fill-rule="evenodd" transform="translate(146.551020, 91.948980) rotate(-270.000000) translate(-146.551020, -91.948980) "></path>
                                <path d="M44.3314804,-12.5255102 C44.3314804,-12.5255102 43.2344654,12.5083244 43.6001371,17.8727175 C43.9658087,23.2371106 44.3314804,55.4234694 44.3314804,55.4234694 C44.3314804,55.4234694 46.5255102,14.2964554 46.5255102,5.35580021 C46.5255102,-3.58485499 44.3314804,-12.5255102 44.3314804,-12.5255102 Z" id="Path-3-Copy-5" fill="#C78A56" fill-rule="evenodd" transform="translate(45.025510, 21.448980) rotate(-270.000000) translate(-45.025510, -21.448980) "></path>
                                <g id="CLICK-HERE-TO-ENTER" fill="none" fill-opacity="1">
                                    <use fill="#FFFFFF" filter="url(#filter-7)" xlink:href="#text-6"></use>
                                    <use fill="#FFFFFF" xlink:href="#text-6"></use>
                                </g>
                                <path d="M95.1020408,153 C95.1020408,153 93.6020408,167 94.1020408,170 C94.6020408,173 95.1020408,191 95.1020408,191 C95.1020408,191 98.1020408,168 98.1020408,163 C98.1020408,158 95.1020408,153 95.1020408,153 Z" id="Path-3" fill="#C78A56" fill-rule="evenodd"></path>
                                <path d="M108.102041,178 C108.102041,178 106.602041,203.789474 107.102041,209.315789 C107.602041,214.842105 108.102041,248 108.102041,248 C108.102041,248 111.102041,205.631579 111.102041,196.421053 C111.102041,187.210526 108.102041,178 108.102041,178 Z" id="Path-3-Copy" fill="#C78A56" fill-rule="evenodd"></path>
                            </g>
                        </g>
                    </g>
                </g>
            </g>
        </g>
    </g>
</svg>