<?xml version="1.0" encoding="UTF-8" standalone="no"?>
<svg width="170px" height="34px" viewBox="0 0 170 34" version="1.1" xmlns="http://www.w3.org/2000/svg" xmlns:xlink="http://www.w3.org/1999/xlink">
    <!-- Generator: Sketch 43.2 (39069) - http://www.bohemiancoding.com/sketch -->
    <title>SQUIRTY CREAM</title>
    <desc>Created with Sketch.</desc>
    <defs></defs>
    <g id="layout" stroke="none" stroke-width="1" fill="none" fill-rule="evenodd">
        <g id="home-iPad" transform="translate(-546.000000, -653.000000)" fill="#D12A2E">
            <g id="TRIPTYCH" transform="translate(34.000000, 637.000000)">
                <g id="3" transform="translate(24.000000, 0.000000)">
                    <path d="M499.034271,43.5833137 C497.170313,45.0242851 494.958371,45.7976667 492.755797,45.6512134 L492.880169,42.4570568 C494.571543,42.4703605 496.05097,42.02311 497.268556,41.0818302 C498.065247,40.4659312 498.276967,39.8699761 497.928345,39.4190186 L497.905104,39.3889548 C497.556482,38.9379973 497.036437,38.9797956 495.326096,39.7496523 C492.691235,40.9700571 490.474494,41.6751014 488.812729,39.5255376 L488.789487,39.4954738 C487.278791,37.5413248 487.734729,34.9313889 490.260091,32.979105 C492.048889,31.5962373 493.818721,30.99653 495.670011,31.0303008 L495.803956,34.2168846 C494.30736,34.2691437 492.987849,34.7368613 492.05587,35.457347 C491.34937,36.0035217 491.22443,36.556405 491.526569,36.9472348 L491.549811,36.9772986 C491.921674,37.4583199 492.445131,37.389869 494.173915,36.5817389 C496.985747,35.2485379 499.093217,34.8681238 500.615533,36.8373046 L500.638775,36.8673685 C502.30054,39.0169323 501.589696,41.6077884 499.034271,43.5833137 Z M517.444006,32.8040598 L516.660088,35.4764291 L514.774152,34.9265822 C514.074644,36.1046691 513.004576,37.0811162 511.6339,37.7381148 C507.933075,39.5120109 503.869513,38.0675225 502.218804,34.6236988 L502.202379,34.5894319 C500.55167,31.1456083 501.988655,27.0224337 505.68948,25.2485376 C509.390306,23.4746415 513.453867,24.9191299 515.104576,28.3629536 L515.121001,28.3972205 C515.728725,29.6650958 515.901317,31.036191 515.709436,32.350218 L517.444006,32.8040598 Z M510.25562,34.7747363 C510.683957,34.5694242 511.054097,34.2866574 511.3482,33.9771277 L509.004619,33.351662 L509.780324,30.6621592 L512.122488,31.3725836 C512.078881,30.9299478 511.958528,30.5030285 511.753215,30.0746923 L511.736791,30.0404254 C510.90733,28.3099468 508.925677,27.3845809 507.092398,28.2633165 C505.259119,29.1420521 504.765342,31.232882 505.594803,32.9633605 L505.611228,32.9976274 C506.440688,34.7281059 508.405208,35.6616843 510.25562,34.7747363 Z M526.170605,33.7718223 C522.546423,34.7807569 519.74377,33.5690117 518.627827,29.5604468 L516.625245,22.3669947 L520.212819,21.3682514 L522.195019,28.4884877 C522.709678,30.3371865 523.887769,30.955899 525.315477,30.5584399 C526.761489,30.1558852 527.460592,29.0540264 526.96122,27.2602394 L524.953542,20.0484834 L528.541116,19.04974 L530.51822,26.1516724 C531.664737,30.270061 529.81309,32.7577921 526.170605,33.7718223 Z M534.538261,32.2009556 L538.176582,31.6100065 L536.044291,18.4820464 L532.405971,19.0729955 L534.538261,32.2009556 Z M540.599797,31.3848712 L538.971241,18.1849542 L545.212916,17.4148801 C547.230618,17.1659437 548.69118,17.5217788 549.686806,18.298713 C550.55533,18.9764642 551.074633,19.9270298 551.235162,21.2281644 L551.239815,21.2658785 C551.491078,23.3024371 550.58141,24.7738968 549.026929,25.6740129 L552.74372,29.8865999 L548.538604,30.4054112 L545.386544,26.7357598 L543.76484,26.9358395 L544.258059,30.9335286 L540.599797,31.3848712 Z M543.41121,24.0695718 L545.843767,23.7694522 C547.069473,23.6182292 547.730449,22.9240706 547.611797,21.9623624 L547.607144,21.9246483 C547.476859,20.868655 546.638579,20.4360451 545.43173,20.5849417 L543.018031,20.8827347 L543.41121,24.0695718 Z M557.461987,30.1202702 L561.142907,29.9268243 L560.614421,19.8707017 L564.598922,19.6613014 L564.429408,16.4357526 L552.798458,17.0470019 L552.967973,20.2725507 L556.9335,20.0641476 L557.461987,30.1202702 Z M570.601417,30.0271814 L574.287416,30.024899 L574.284299,24.9899 L579.33318,16.7217722 L575.210181,16.7243251 L572.458181,21.5710301 L569.719182,16.7277251 L565.520183,16.7303251 L570.598335,25.0491824 L570.601417,30.0271814 Z M592.098334,31.5919344 C595.015528,31.8187743 596.800129,30.6807013 598.184396,29.054122 L595.571936,26.8690131 C594.701215,27.7732314 593.836592,28.3539488 592.453767,28.2464208 C590.597371,28.1020681 589.411101,26.4471211 589.565765,24.4581254 L589.568711,24.4202397 C589.718955,22.4880724 591.14974,20.9985118 593.006136,21.1428644 C594.275305,21.2415545 595.098066,21.9344248 595.783603,22.9215423 L598.715701,20.9960599 C597.66645,19.2945954 596.01209,18.0225116 593.303268,17.8118746 C589.28739,17.4996016 586.096633,20.3006665 585.796144,24.1650011 L585.793198,24.2028868 C585.485344,28.1619355 588.309771,31.2973372 592.098334,31.5919344 Z M599.523687,32.4445311 L601.453083,19.2852214 L607.675556,20.1975501 C609.687051,20.4924721 611.001002,21.2228092 611.75501,22.235908 C612.412762,23.1196751 612.661459,24.1739047 612.471275,25.4710366 L612.465763,25.5086346 C612.168085,27.5389281 610.900845,28.7165502 609.163348,29.1723173 L611.630251,34.2195754 L607.438071,33.604925 L605.371742,29.2308986 L603.755027,28.9938585 L603.170695,32.9792494 L599.523687,32.4445311 Z M604.173981,26.1364084 L606.599054,26.4919685 C607.82099,26.6711267 608.642352,26.1770532 608.782923,25.2183035 L608.788435,25.1807055 C608.942787,24.1279607 608.249203,23.4885808 607.046066,23.3121789 L604.639792,22.959375 L604.173981,26.1364084 Z M612.922559,35.0265414 L615.874442,22.0582575 L626.304647,24.4324149 L625.613063,27.4706985 L618.739873,25.9062005 L618.288656,27.8884953 L624.513432,29.3053992 L623.868235,32.1398955 L617.643459,30.7229917 L617.175375,32.779391 L624.141196,34.3649739 L623.445395,37.4217836 L612.922559,35.0265414 Z M624.150438,38.1386955 L633.610635,27.1035627 L636.994284,28.1874109 L638.300244,42.6711513 L634.536613,41.4655876 L634.362187,38.8958967 L629.45861,37.3251863 L627.823598,39.3152793 L624.150438,38.1386955 Z M631.365183,34.9233056 L634.206,35.8332743 L633.942243,31.7985005 L631.365183,34.9233056 Z M639.158471,44.0616635 L642.430007,45.5878189 L645.650998,38.6831554 L646.523067,44.8136031 L646.591942,44.8457326 L651.87495,41.5656318 L648.645926,48.487514 L651.969119,50.0377665 L657.591796,37.9847379 L654.061981,36.3380966 L649.009693,39.6629304 L648.310964,33.6552762 L644.781149,32.008635 L639.158471,44.0616635 Z" id="SQUIRTY-CREAM"></path>
                </g>
            </g>
        </g>
    </g>
</svg>