<?xml version="1.0" encoding="UTF-8" standalone="no"?>
<svg width="138px" height="25px" viewBox="0 0 138 25" version="1.1" xmlns="http://www.w3.org/2000/svg" xmlns:xlink="http://www.w3.org/1999/xlink">
    <!-- Generator: Sketch 43.2 (39069) - http://www.bohemiancoding.com/sketch -->
    <title>Spreadable</title>
    <desc>Created with Sketch.</desc>
    <defs></defs>
    <g id="layout" stroke="none" stroke-width="1" fill="none" fill-rule="evenodd">
        <g id="home-iPad" transform="translate(-319.000000, -653.000000)" fill="#D12A2E">
            <g id="TRIPTYCH" transform="translate(34.000000, 637.000000)">
                <g id="2" transform="translate(241.000000, 0.000000)">
                    <path d="M53.484538,39.2695487 C51.3502465,40.2673141 49.0226259,40.5374848 46.9055993,39.9122037 L47.7265006,36.8228306 C49.3738998,37.2062375 50.9153623,37.0938528 52.3095366,36.4420867 C53.2217741,36.0156225 53.558874,35.4805041 53.3174791,34.9641432 L53.3013862,34.9297192 C53.0599913,34.4133583 52.5434172,34.3402473 50.7059931,34.7168341 C47.8678201,35.3305529 45.550484,35.5329946 44.3998353,33.0716745 L44.3837423,33.0372504 C43.337698,30.7996867 44.3541664,28.3529671 47.2457872,27.001156 C49.2940186,26.0436231 51.152225,25.846084 52.9511754,26.2844842 L52.3839784,29.4230421 C50.9122698,29.1462644 49.5223585,29.3136424 48.4552127,29.8125251 C47.6462474,30.1907103 47.4032541,30.7028082 47.612463,31.150321 L47.6285559,31.184745 C47.8860438,31.7355299 48.4117834,31.7833825 50.2755851,31.3734906 C53.3111369,30.6884724 55.4507575,30.7788485 56.5048483,33.0336242 L56.5209413,33.0680482 C57.67159,35.5293683 56.4105829,37.9016446 53.484538,39.2695487 Z M60.2299089,36.9184465 L56.1435974,24.2617464 L61.5859785,22.5046325 C64.7682345,21.477217 67.3606891,22.457103 68.2596776,25.2415771 L68.2713528,25.2777391 C69.2403923,28.2791851 67.4519754,30.5936058 64.3239624,31.6035085 L62.5701054,32.1697545 L63.7376229,35.7859545 L60.2299089,36.9184465 Z M61.682792,29.4214424 L63.3643251,28.8785468 C64.5938331,28.4815908 65.1553253,27.5615775 64.834258,26.5671225 L64.8225828,26.5309605 C64.4723276,25.4461005 63.5138793,25.1366058 62.2662903,25.5393993 L60.6028383,26.0764574 L61.682792,29.4214424 Z M72.611832,33.7412812 L69.8072245,20.7403514 L75.9548071,19.4141727 C77.9420921,18.9854684 79.4286604,19.2090185 80.4898893,19.8936287 C81.4156422,20.4908419 82.018019,21.3910598 82.2944731,22.67258 L82.3024863,22.7097255 C82.7351972,24.7155833 81.9610173,26.2626242 80.493431,27.2983888 L84.5726875,31.1610423 L80.4309627,32.0545101 L76.9628086,28.6820137 L75.3655515,29.0265798 L76.2149469,32.9640043 L72.611832,33.7412812 Z M74.756551,26.2035208 L77.1524366,25.6866717 C78.3596658,25.4262438 78.9557927,24.6756589 78.751457,23.7284483 L78.7434439,23.6913028 C78.5190753,22.6512284 77.6454079,22.2954611 76.4567515,22.5518823 L74.0794386,23.0647248 L74.756551,26.2035208 Z M86.0962395,31.5464867 L84.398876,18.3552413 L95.0084063,16.990076 L95.4060743,20.0805964 L88.4147142,20.9801991 L88.6741683,22.9965752 L95.0059662,22.1818407 L95.3769613,25.06507 L89.0451635,25.8798045 L89.3143169,27.9715592 L96.3999002,27.0598325 L96.799993,30.1691975 L86.0962395,31.5464867 Z M97.702726,30.4836265 L102.477183,16.7550418 L106.022904,16.5277287 L112.530287,29.5330443 L108.586383,29.7858846 L107.485167,27.457568 L102.346715,27.7869898 L101.551824,30.2368641 L97.702726,30.4836265 Z M103.243944,24.8545794 L106.220833,24.6637336 L104.501185,21.0042559 L103.243944,24.8545794 Z M113.835787,30.0133895 L113.818687,16.7134005 L118.967682,16.7067803 C123.698679,16.7006976 126.457194,19.4331531 126.462129,23.27115 L126.462178,23.3091499 C126.467112,27.1471468 123.677779,30.0007354 118.908783,30.0068671 L113.835787,30.0133895 Z M119.00986,19.9557288 L117.508861,19.9576587 L117.517582,26.7406531 L119.018581,26.7387232 C121.241579,26.735865 122.703014,25.517985 122.700254,23.3709868 L122.700205,23.3329868 C122.697469,21.2049886 121.232858,19.9528706 119.00986,19.9557288 Z M126.390118,30.3708313 L132.750265,17.3010951 L136.298051,17.4935138 L141.226313,31.175491 L137.280113,30.9614638 L136.461158,28.5195283 L131.319715,28.2406757 L130.241458,30.5797135 L126.390118,30.3708313 Z M132.556501,25.4345377 L135.535123,25.5960871 L134.259035,21.7593478 L132.556501,25.4345377 Z M142.458042,31.876733 L144.171437,18.6875603 L150.935599,19.5662871 C152.593666,19.7816854 153.708,20.3479601 154.382601,21.2019831 C154.839184,21.8169275 155.068927,22.5556805 154.951437,23.4600809 L154.946542,23.4977642 C154.748278,25.0239399 153.764071,25.8157458 152.529799,26.1727132 C154.062805,26.9083352 154.962766,27.9449118 154.730234,29.734871 L154.725338,29.7725543 C154.431613,32.0335554 152.406447,33.1691224 149.259887,32.7603553 L142.458042,31.876733 Z M151.249874,23.7839192 L151.254769,23.7462358 C151.35023,23.0114105 150.81754,22.5398564 149.743564,22.4003371 L147.350671,22.0894783 L147.049603,24.4070044 L149.348288,24.7056246 C150.459947,24.8500393 151.149518,24.5564279 151.249874,23.7839192 Z M151.141037,28.7512906 C151.23405,28.0353069 150.729992,27.4908338 149.505283,27.3317329 L146.716715,26.9694722 L146.400961,29.4000483 L149.227212,29.7672044 C150.357713,29.9140668 151.035785,29.5614826 151.136141,28.7889739 L151.141037,28.7512906 Z M155.82535,34.2682543 L165.722589,36.4131954 L166.406717,33.2564772 L160.11185,31.8922464 L162.244718,22.0507133 L158.642345,21.2700031 L155.82535,34.2682543 Z M167.126808,37.3503982 L177.423457,40.5824706 L178.362351,37.5913667 L171.54626,35.4518258 L172.17788,33.4396286 L178.268855,35.3515588 L179.139466,32.5779897 L173.048491,30.6660596 L173.65735,28.726374 L180.382801,30.8374635 L181.316005,27.8644875 L171.109996,24.6608665 L167.126808,37.3503982 Z" id="Spreadable"></path>
                </g>
            </g>
        </g>
    </g>
</svg>