<?xml version="1.0" encoding="UTF-8" standalone="no"?>
<svg width="158px" height="30px" viewBox="0 0 158 30" version="1.1" xmlns="http://www.w3.org/2000/svg" xmlns:xlink="http://www.w3.org/1999/xlink">
    <!-- Generator: Sketch 43.2 (39069) - http://www.bohemiancoding.com/sketch -->
    <title>BLOCK BUTTER</title>
    <desc>Created with Sketch.</desc>
    <defs></defs>
    <g id="layout" stroke="none" stroke-width="1" fill="none" fill-rule="evenodd">
        <g id="home-iPad" transform="translate(-66.000000, -653.000000)" fill="#D12A2E">
            <g id="TRIPTYCH" transform="translate(34.000000, 637.000000)">
                <g id="1">
                    <g id="test" transform="translate(27.120000, 22.322727)">
                        <path d="M12.9039136,23.6549063 L5.74450583,12.4462988 L11.4929202,8.77454542 C12.9020023,7.87450558 14.1197746,7.59265713 15.1853878,7.81381224 C15.9303361,7.99179253 16.580971,8.41037616 17.0719018,9.17896638 L17.0923573,9.21099098 C17.920803,10.507987 17.6751682,11.7470526 16.9585544,12.8135035 C18.6059759,12.3924912 19.9615707,12.6087842 20.9332046,14.1299524 L20.9536601,14.161977 C22.1809871,16.0834525 21.3584061,18.2546673 18.6843526,19.9626974 L12.9039136,23.6549063 Z M14.4431177,11.8049784 L14.4226622,11.7729538 C14.0237809,11.1484742 13.3126175,11.1292755 12.3999166,11.7122558 L10.366355,13.011177 L11.6243652,14.9806894 L13.5778654,13.7329069 C14.5225909,13.1294711 14.8624544,12.4614825 14.4431177,11.8049784 Z M17.5506706,15.6817991 C17.162017,15.0733318 16.425955,14.9798562 15.3851557,15.6446584 L13.0153359,17.1583617 L14.3347124,19.2239479 L16.7365569,17.6897891 C17.6972947,17.0761256 17.9904628,16.3703279 17.571126,15.7138237 L17.5506706,15.6817991 Z M25.0595793,17.5998025 L19.9277838,5.32973019 L23.3283467,3.90748974 L27.213849,13.1976874 L33.1560698,10.7124321 L34.4023629,13.6923068 L25.0595793,17.5998025 Z M41.9215694,12.3566549 C37.9919351,13.5402049 34.1989119,11.4878756 33.0975529,7.8311326 L33.0865941,7.7947471 C31.9852351,4.1380041 34.0393189,0.284923179 37.9689532,-0.898626772 C41.8985875,-2.08217672 45.6916107,-0.0298474378 46.7929697,3.62689557 L46.8039285,3.66328107 C47.9052875,7.32002407 45.8512037,11.173105 41.9215694,12.3566549 Z M40.9990603,9.16196467 C42.9274919,8.5811485 43.747949,6.62753463 43.1945298,4.79006676 L43.183571,4.75368125 C42.6246724,2.89802063 40.8380867,1.70976792 38.8914623,2.29606349 C36.944838,2.88235907 36.1243808,4.83597293 36.6778,6.67344081 L36.6887588,6.70982631 C37.242178,8.54729419 39.0524359,9.74826025 40.9990603,9.16196467 Z M57.1815486,9.66530448 C60.0616667,9.1491691 61.5015981,7.59784468 62.4309454,5.67475583 L59.3518848,4.21906416 C58.737326,5.3136337 58.0470892,6.09361965 56.6818384,6.33828122 C54.8490359,6.66673101 53.2837681,5.36441709 52.9318576,3.4007002 L52.9251545,3.36329607 C52.5832987,1.45568538 53.5922128,-0.346543589 55.4250152,-0.674993373 C56.6780536,-0.899545776 57.6489491,-0.436547918 58.5612566,0.345792159 L60.9130354,-2.2568644 C59.4686275,-3.63874521 57.5469457,-4.45252854 54.8725503,-3.97325997 C50.9077124,-3.26273595 48.5264348,0.252432975 49.2101466,4.06765436 L49.2168496,4.10505849 C49.917319,8.0137902 53.4411355,10.3356102 57.1815486,9.66530448 Z M64.569874,8.74036549 L68.2379946,8.377753 L67.8978117,4.93652653 L69.0944755,3.32900649 L72.9271383,7.91420714 L77.3137567,7.48056746 L71.3853545,0.429575771 L75.8351906,-5.73809674 L71.5052957,-5.31006447 L67.4604338,0.512092495 L66.929599,-4.85773343 L63.2614784,-4.49512094 L64.569874,8.74036549 Z M83.6742855,7.81028282 L83.5013218,-5.48859245 L90.321745,-5.5772981 C91.9936036,-5.5990421 93.17694,-5.19639709 93.9657578,-4.44659209 C94.5048784,-3.90255723 94.8369935,-3.20381723 94.8488538,-2.29189435 L94.849348,-2.25389756 C94.8693624,-0.715027711 94.0072966,0.208261348 92.8360677,0.736537605 C94.4578497,1.24748989 95.4956233,2.14606985 95.5190969,3.95091721 L95.5195911,3.988914 C95.549242,6.26872119 93.7054371,7.67981881 90.5327055,7.72108299 L83.6742855,7.81028282 Z M91.2305385,-1.44676746 L91.2300443,-1.48476425 C91.2204078,-2.22570159 90.6262687,-2.61700803 89.5433603,-2.60292384 L87.1305643,-2.57154329 L87.1609565,-0.234740924 L89.4787605,-0.264886019 C90.5996657,-0.279464384 91.2406693,-0.667833341 91.2305385,-1.44676746 Z M91.8267372,3.48589623 C91.8173477,2.76395729 91.2412187,2.29641019 90.0063231,2.3124711 L87.1945609,2.34904056 L87.2264356,4.79983329 L90.0761946,4.76276965 C91.2160982,4.74794419 91.8373621,4.30282714 91.8272314,3.52389302 L91.8267372,3.48589623 Z M103.228975,8.54867233 C107.006799,8.70362262 109.533604,6.90566394 109.708799,2.63425531 L110.010913,-4.73155157 L106.290042,-4.88416593 L105.983256,2.59554519 C105.906949,4.45598095 104.902945,5.28953583 103.403206,5.22802291 C101.922451,5.16728862 100.99164,4.21634391 101.070283,2.29895603 L101.373176,-5.08583489 L97.6523044,-5.23844924 L97.346297,2.22227783 C97.1757738,6.37978223 99.4701355,8.39450069 103.228975,8.54867233 Z M114.840272,9.55598556 L118.504259,9.95822226 L119.603154,-0.0516394694 L123.569325,0.383771393 L123.921801,-2.82693897 L112.344357,-4.09792401 L111.991881,-0.887213649 L115.939166,-0.453876171 L114.840272,9.55598556 Z M127.195971,11.6794432 L129.019491,1.77592493 L125.114141,1.05683872 L125.699044,-2.11976148 L137.153491,-0.0106713133 L136.568588,3.16592889 L132.644553,2.44340208 L130.821033,12.3469204 L127.195971,11.6794432 Z M136.194923,13.9951454 L139.767671,1.1839991 L150.071493,4.05750957 L149.234449,7.05897813 L142.444541,5.1654215 L141.898421,7.12369671 L148.047772,8.83861593 L147.266871,11.6387665 L141.117521,9.92384726 L140.550985,11.955329 L147.432401,13.8744053 L146.590253,16.8941755 L136.194923,13.9951454 Z M148.166737,18.2061162 L153.199009,5.89489217 L159.020459,8.27443795 C160.902318,9.04365668 162.002499,10.0680887 162.491229,11.2325806 C162.917567,12.2484139 162.905889,13.3315176 162.409851,14.5450526 L162.395473,14.5802275 C161.619065,16.4796735 160.106164,17.3186126 158.310063,17.3439092 L159.493063,22.8358065 L155.571059,21.2326684 L154.615286,16.4904829 L153.102764,15.8722323 L151.578705,19.6007745 L148.166737,18.2061162 Z M154.195486,13.198938 L156.464269,14.1263138 C157.607454,14.5935962 158.523412,14.3111669 158.890049,13.4142062 L158.904426,13.3790313 C159.307008,12.3941334 158.787213,11.6069371 157.661615,11.1468436 L155.41042,10.2266567 L154.195486,13.198938 Z" id="BLOCK-BUTTER"></path>
                    </g>
                </g>
            </g>
        </g>
    </g>
</svg>