<?xml version="1.0" encoding="UTF-8" standalone="no"?>
<svg width="24px" height="26px" viewBox="0 0 24 26" version="1.1" xmlns="http://www.w3.org/2000/svg" xmlns:xlink="http://www.w3.org/1999/xlink">
    <!-- Generator: Sketch 43.2 (39069) - http://www.bohemiancoding.com/sketch -->
    <title>arrow-left - FontAwesome</title>
    <desc>Created with Sketch.</desc>
    <defs></defs>
    <g id="layout" stroke="none" stroke-width="1" fill="none" fill-rule="evenodd">
        <g id="home" transform="translate(-992.000000, -254.000000)" fill="#D12A2E">
            <g id="HERO" transform="translate(-40.000000, 73.000000)">
                <g id="LEFT-Copy" transform="translate(1063.500000, 193.500000) scale(-1, 1) translate(-1063.500000, -193.500000) translate(1019.000000, 149.000000)">
                    <path d="M75.870991,43.5949447 C75.870991,42.4922087 75.1412392,41.5192063 73.9736364,41.5192063 L62.5570755,41.5192063 L67.3085703,36.7677115 C67.6977713,36.3785106 67.9248051,35.8433593 67.9248051,35.2919913 C67.9248051,34.7406233 67.6977713,34.205472 67.3085703,33.8162711 L66.0923174,32.6162348 C65.7031164,32.2270339 65.1841818,32 64.6328139,32 C64.0814459,32 63.5462946,32.2270339 63.1570936,32.6162348 L52.6000181,43.1570936 C52.2270339,43.5462946 52,44.0814459 52,44.6328139 C52,45.1841818 52.2270339,45.7193331 52.6000181,46.0923174 L63.1570936,56.6656096 C63.5462946,57.0385938 64.0814459,57.2656277 64.6328139,57.2656277 C65.1841818,57.2656277 65.7193331,57.0385938 66.0923174,56.6656096 L67.3085703,55.4331399 C67.6977713,55.0601557 67.9248051,54.5250044 67.9248051,53.9736364 C67.9248051,53.4222684 67.6977713,52.8871171 67.3085703,52.5141329 L62.5570755,47.7464214 L73.9736364,47.7464214 C75.1412392,47.7464214 75.870991,46.773419 75.870991,45.670683 L75.870991,43.5949447 Z" id="arrow-left---FontAwesome"></path>
                </g>
            </g>
        </g>
    </g>
</svg>