<?xml version="1.0" encoding="UTF-8" standalone="no"?>
<svg width="14px" height="15px" viewBox="0 0 14 15" version="1.1" xmlns="http://www.w3.org/2000/svg" xmlns:xlink="http://www.w3.org/1999/xlink">
    <!-- Generator: Sketch 43.2 (39069) - http://www.bohemiancoding.com/sketch -->
    <title></title>
    <desc>Created with Sketch.</desc>
    <defs></defs>
    <g id="Symbols" stroke="none" stroke-width="1" fill="none" fill-rule="evenodd">
        <g id="REDEEM-VOUCHERS" transform="translate(-990.000000, -17.000000)" fill="#FFFFFF">
            <g id="">
                <path d="M1003.48661,28.6116071 C1003.48661,28.9092277 1003.38244,29.1622013 1003.17411,29.3705357 L1001.65625,30.8883929 C1001.44792,31.0967272 1001.19494,31.2008929 1000.89732,31.2008929 C1000.5997,31.2008929 1000.34673,31.0967272 1000.13839,30.8883929 L996.857143,27.6071429 L993.575893,30.8883929 C993.367558,31.0967272 993.114585,31.2008929 992.816964,31.2008929 C992.519344,31.2008929 992.26637,31.0967272 992.058036,30.8883929 L990.540179,29.3705357 C990.331844,29.1622013 990.227679,28.9092277 990.227679,28.6116071 C990.227679,28.3139866 990.331844,28.0610129 990.540179,27.8526786 L993.821429,24.5714286 L990.540179,21.2901786 C990.331844,21.0818442 990.227679,20.8288705 990.227679,20.53125 C990.227679,20.2336295 990.331844,19.9806558 990.540179,19.7723214 L992.058036,18.2544643 C992.26637,18.0461299 992.519344,17.9419643 992.816964,17.9419643 C993.114585,17.9419643 993.367558,18.0461299 993.575893,18.2544643 L996.857143,21.5357143 L1000.13839,18.2544643 C1000.34673,18.0461299 1000.5997,17.9419643 1000.89732,17.9419643 C1001.19494,17.9419643 1001.44792,18.0461299 1001.65625,18.2544643 L1003.17411,19.7723214 C1003.38244,19.9806558 1003.48661,20.2336295 1003.48661,20.53125 C1003.48661,20.8288705 1003.38244,21.0818442 1003.17411,21.2901786 L999.892857,24.5714286 L1003.17411,27.8526786 C1003.38244,28.0610129 1003.48661,28.3139866 1003.48661,28.6116071 Z"></path>
            </g>
        </g>
    </g>
</svg>