<?xml version="1.0" encoding="UTF-8" standalone="no"?>
<svg width="18px" height="13px" viewBox="0 0 18 13" version="1.1" xmlns="http://www.w3.org/2000/svg" xmlns:xlink="http://www.w3.org/1999/xlink">
    <!-- Generator: Sketch 43.2 (39069) - http://www.bohemiancoding.com/sketch -->
    <title>chevron-down - FontAwesome</title>
    <desc>Created with Sketch.</desc>
    <defs></defs>
    <g id="layout" stroke="none" stroke-width="1" fill="none" fill-rule="evenodd">
        <g id="faqs" transform="translate(-789.000000, -606.000000)" fill="#FFFFFF">
            <g id="FAQ-ITEMS" transform="translate(202.000000, 469.000000)">
                <g id="2-copy-2" transform="translate(0.000000, 123.000000)">
                    <path d="M604.783482,17.875 L596.502232,26.1450893 C596.360862,26.286459 596.193453,26.3571429 596,26.3571429 C595.806547,26.3571429 595.639138,26.286459 595.497768,26.1450893 L587.216518,17.875 C587.075148,17.7336302 587.004464,17.5643611 587.004464,17.3671875 C587.004464,17.1700139 587.075148,17.0007448 587.216518,16.859375 L589.069196,15.0178571 C589.210566,14.8764874 589.377975,14.8058036 589.571429,14.8058036 C589.764882,14.8058036 589.932291,14.8764874 590.073661,15.0178571 L596,20.9441964 L601.926339,15.0178571 C602.067709,14.8764874 602.235118,14.8058036 602.428571,14.8058036 C602.622025,14.8058036 602.789434,14.8764874 602.930804,15.0178571 L604.783482,16.859375 C604.924852,17.0007448 604.995536,17.1700139 604.995536,17.3671875 C604.995536,17.5643611 604.924852,17.7336302 604.783482,17.875 Z" id="chevron-down---FontAwesome"></path>
                </g>
            </g>
        </g>
    </g>
</svg>