<?xml version="1.0" encoding="UTF-8" standalone="no"?>
<svg width="24px" height="24px" viewBox="0 0 24 24" version="1.1" xmlns="http://www.w3.org/2000/svg" xmlns:xlink="http://www.w3.org/1999/xlink">
    <!-- Generator: Sketch 43.2 (39069) - http://www.bohemiancoding.com/sketch -->
    <title>Group 3</title>
    <desc>Created with Sketch.</desc>
    <defs></defs>
    <g id="Symbols" stroke="none" stroke-width="1" fill="none" fill-rule="evenodd">
        <g id="HEADER" transform="translate(-944.000000, -104.000000)">
            <g id="social">
                <g transform="translate(910.000000, 104.000000)">
                    <g id="Group-3" transform="translate(34.000000, 0.000000)">
                        <circle id="Oval-Copy" fill="#3BBDE0" cx="12" cy="12" r="12"></circle>
                        <path d="M18.54375,8.30625 C18.0453125,8.52109375 17.5039062,8.67578125 16.9453125,8.7359375 C17.5210937,8.3921875 17.959375,7.85078125 18.165625,7.20625 C17.6328125,7.52421875 17.03125,7.75625 16.4039062,7.8765625 C15.896875,7.33515625 15.175,7 14.3757812,7 C12.8375,7 11.6,8.24609375 11.6,9.77578125 C11.6,9.990625 11.6257812,10.2054687 11.66875,10.4117188 C9.365625,10.2914062 7.31171875,9.19140625 5.9453125,7.50703125 C5.7046875,7.91953125 5.5671875,8.3921875 5.5671875,8.9078125 C5.5671875,9.8703125 6.05703125,10.7210937 6.8046875,11.2195312 C6.34921875,11.2023438 5.91953125,11.0734375 5.55,10.8671875 L5.55,10.9015625 C5.55,12.2507812 6.50390625,13.3679687 7.77578125,13.6257812 C7.54375,13.6859375 7.29453125,13.7203125 7.0453125,13.7203125 C6.86484375,13.7203125 6.69296875,13.703125 6.52109375,13.6773438 C6.8734375,14.7773438 7.89609375,15.5765625 9.11640625,15.6023437 C8.1625,16.35 6.96796875,16.7882813 5.6703125,16.7882813 C5.43828125,16.7882813 5.2234375,16.7796875 5,16.7539062 C6.22890625,17.5445312 7.68984375,18 9.2625,18 C14.3671875,18 17.1601562,13.771875 17.1601562,10.1023437 C17.1601562,9.98203125 17.1601562,9.86171875 17.1515625,9.74140625 C17.6929687,9.34609375 18.165625,8.85625 18.54375,8.30625 Z" id="twitter---FontAwesome" fill="#FFFFFF"></path>
                    </g>
                </g>
            </g>
        </g>
    </g>
</svg>