<?xml version="1.0" encoding="UTF-8" standalone="no"?>
<svg width="24px" height="24px" viewBox="0 0 24 24" version="1.1" xmlns="http://www.w3.org/2000/svg" xmlns:xlink="http://www.w3.org/1999/xlink">
    <!-- Generator: Sketch 43.2 (39069) - http://www.bohemiancoding.com/sketch -->
    <title>Group 4</title>
    <desc>Created with Sketch.</desc>
    <defs></defs>
    <g id="Symbols" stroke="none" stroke-width="1" fill="none" fill-rule="evenodd">
        <g id="HEADER" transform="translate(-978.000000, -104.000000)">
            <g id="social">
                <g transform="translate(910.000000, 104.000000)">
                    <g id="Group-4" transform="translate(68.000000, 0.000000)">
                        <circle id="Oval" fill="#D12A2E" cx="12" cy="12" r="12"></circle>
                        <path d="M15.0000238,12 C15.0000238,11.828125 14.9140863,11.6640625 14.7656488,11.578125 L10.7656488,9.078125 C10.6093988,8.9765625 10.4140863,8.9765625 10.2578363,9.0625 C10.1015863,9.1484375 10.0000238,9.3203125 10.0000238,9.5 L10.0000238,14.5 C10.0000238,14.6796875 10.1015863,14.8515625 10.2578363,14.9375 C10.3359613,14.9765625 10.4140863,15 10.5000238,15 C10.5937738,15 10.6875238,14.9765625 10.7656488,14.921875 L14.7656488,12.421875 C14.9140863,12.3359375 15.0000238,12.171875 15.0000238,12 Z M19.0000238,12 C19.0000238,13.1171875 19.0000238,14.3046875 18.7500238,15.390625 C18.5859613,16.15625 17.9765863,16.71875 17.2422113,16.8046875 C15.5078363,17 13.7500238,17 12.0000238,17 C10.2500238,17 8.49221134,17 6.75783634,16.8046875 C6.02346134,16.71875 5.41408634,16.15625 5.24221134,15.390625 C5.00002384,14.3046875 5.00002384,13.1171875 5.00002384,12 C5.00002384,10.8828125 5.00002384,9.6953125 5.25002384,8.609375 C5.42189884,7.84375 6.02346134,7.28125 6.75783634,7.1953125 C8.49221134,7 10.2500238,7 12.0000238,7 C13.7500238,7 15.5078363,7 17.2422113,7.1953125 C17.9765863,7.28125 18.5859613,7.84375 18.7578363,8.609375 C19.0000238,9.6953125 19.0000238,10.8828125 19.0000238,12 Z" id="youtube-play---FontAwesome" fill="#FFFFFF"></path>
                    </g>
                </g>
            </g>
        </g>
    </g>
</svg>