<?xml version="1.0" encoding="UTF-8"?>
<svg width="214px" height="221px" viewBox="0 0 214 221" version="1.1" xmlns="http://www.w3.org/2000/svg" xmlns:xlink="http://www.w3.org/1999/xlink">
    <!-- Generator: Sketch 43.2 (39069) - http://www.bohemiancoding.com/sketch -->
    <title>sign</title>
    <desc>Created with Sketch.</desc>
    <defs>
        <rect id="path-1" x="0" y="0" width="238" height="260"></rect>
        <rect id="path-3" x="0" y="0" width="238" height="287"></rect>
        <path d="M19.5049748,14.7573054 C22.4499748,14.7573054 24.1409748,13.4843054 25.3949748,11.7553054 L22.6209748,9.7793054 C21.8229748,10.7483054 21.0059748,11.3943054 19.6189748,11.3943054 C17.7569748,11.3943054 16.4459748,9.8363054 16.4459748,7.8413054 L16.4459748,7.8033054 C16.4459748,5.8653054 17.7569748,4.2883054 19.6189748,4.2883054 C20.8919748,4.2883054 21.7659748,4.8963054 22.5259748,5.8463054 L25.2999748,3.6993054 C24.1219748,2.0653054 22.3739748,0.9253054 19.6569748,0.9253054 C15.6289748,0.9253054 12.6459748,3.9653054 12.6459748,7.8413054 L12.6459748,7.8793054 C12.6459748,11.8503054 15.7049748,14.7573054 19.5049748,14.7573054 Z M26.9719748,14.4913054 L37.0989748,14.4913054 L37.0989748,11.2613054 L30.6579748,11.2613054 L30.6579748,1.1913054 L26.9719748,1.1913054 L26.9719748,14.4913054 Z M38.7519748,14.4913054 L42.4569748,14.4913054 L42.4569748,1.1913054 L38.7519748,1.1913054 L38.7519748,14.4913054 Z M51.2919748,14.7573054 C54.2369748,14.7573054 55.9279748,13.4843054 57.1819748,11.7553054 L54.4079748,9.7793054 C53.6099748,10.7483054 52.7929748,11.3943054 51.4059748,11.3943054 C49.5439748,11.3943054 48.2329748,9.8363054 48.2329748,7.8413054 L48.2329748,7.8033054 C48.2329748,5.8653054 49.5439748,4.2883054 51.4059748,4.2883054 C52.6789748,4.2883054 53.5529748,4.8963054 54.3129748,5.8463054 L57.0869748,3.6993054 C55.9089748,2.0653054 54.1609748,0.9253054 51.4439748,0.9253054 C47.4159748,0.9253054 44.4329748,3.9653054 44.4329748,7.8413054 L44.4329748,7.8793054 C44.4329748,11.8503054 47.4919748,14.7573054 51.2919748,14.7573054 Z M58.7589748,14.4913054 L62.4449748,14.4913054 L62.4449748,11.0523054 L63.7939748,9.5513054 L67.1379748,14.4913054 L71.5649748,14.4913054 L66.3589748,6.9103054 L71.3939748,1.1913054 L67.0239748,1.1913054 L62.4449748,6.5873054 L62.4449748,1.1913054 L58.7589748,1.1913054 L58.7589748,14.4913054 Z M77.8919748,14.4913054 L81.5779748,14.4913054 L81.5779748,9.4373054 L86.3089748,9.4373054 L86.3089748,14.4913054 L89.9949748,14.4913054 L89.9949748,1.1913054 L86.3089748,1.1913054 L86.3089748,6.1693054 L81.5779748,6.1693054 L81.5779748,1.1913054 L77.8919748,1.1913054 L77.8919748,14.4913054 Z M92.3509748,14.4913054 L103.142975,14.4913054 L103.142975,11.3563054 L95.9989748,11.3563054 L95.9989748,9.2473054 L102.382975,9.2473054 L102.382975,6.3403054 L95.9989748,6.3403054 L95.9989748,4.3263054 L103.047975,4.3263054 L103.047975,1.1913054 L92.3509748,1.1913054 L92.3509748,14.4913054 Z M105.023975,14.4913054 L105.023975,1.1913054 L111.312975,1.1913054 C113.345975,1.1913054 114.751975,1.7233054 115.644975,2.6353054 C116.423975,3.3953054 116.822975,4.4213054 116.822975,5.7323054 L116.822975,5.7703054 C116.822975,7.8033054 115.739975,9.1523054 114.086975,9.8553054 L117.259975,14.4913054 L113.003975,14.4913054 L110.324975,10.4633054 L108.709975,10.4633054 L108.709975,14.4913054 L105.023975,14.4913054 Z M108.709975,7.5753054 L111.141975,7.5753054 C112.395975,7.5753054 113.117975,6.9673054 113.117975,5.9983054 L113.117975,5.9603054 C113.117975,4.9153054 112.357975,4.3833054 111.122975,4.3833054 L108.709975,4.3833054 L108.709975,7.5753054 Z M118.684975,14.4913054 L129.476975,14.4913054 L129.476975,11.3563054 L122.332975,11.3563054 L122.332975,9.2473054 L128.716975,9.2473054 L128.716975,6.3403054 L122.332975,6.3403054 L122.332975,4.3263054 L129.381975,4.3263054 L129.381975,1.1913054 L118.684975,1.1913054 L118.684975,14.4913054 Z M139.869975,14.4913054 L143.555975,14.4913054 L143.555975,4.4213054 L147.545975,4.4213054 L147.545975,1.1913054 L135.879975,1.1913054 L135.879975,4.4213054 L139.869975,4.4213054 L139.869975,14.4913054 Z M155.278975,14.7573054 C151.174975,14.7573054 148.134975,11.6983054 148.134975,7.8793054 L148.134975,7.8413054 C148.134975,4.0223054 151.212975,0.9253054 155.316975,0.9253054 C159.420975,0.9253054 162.460975,3.9843054 162.460975,7.8033054 L162.460975,7.8413054 C162.460975,11.6603054 159.382975,14.7573054 155.278975,14.7573054 Z M155.316975,11.4323054 C157.349975,11.4323054 158.698975,9.7983054 158.698975,7.8793054 L158.698975,7.8413054 C158.698975,5.9223054 157.311975,4.2503054 155.278975,4.2503054 C153.264975,4.2503054 151.915975,5.8843054 151.915975,7.8033054 L151.915975,7.8413054 C151.915975,9.7603054 153.302975,11.4323054 155.316975,11.4323054 Z" id="path-5"></path>
        <filter x="-0.3%" y="-3.6%" width="100.7%" height="114.5%" filterUnits="objectBoundingBox" id="filter-6">
            <feOffset dx="0" dy="1" in="SourceAlpha" result="shadowOffsetOuter1"></feOffset>
            <feColorMatrix values="0 0 0 0 0   0 0 0 0 0   0 0 0 0 0  0 0 0 0.5 0" type="matrix" in="shadowOffsetOuter1"></feColorMatrix>
        </filter>
        <path d="M0.2864748,40.4913054 L11.0784748,40.4913054 L11.0784748,37.3563054 L3.9344748,37.3563054 L3.9344748,35.2473054 L10.3184748,35.2473054 L10.3184748,32.3403054 L3.9344748,32.3403054 L3.9344748,30.3263054 L10.9834748,30.3263054 L10.9834748,27.1913054 L0.2864748,27.1913054 L0.2864748,40.4913054 Z M12.9594748,40.4913054 L16.6074748,40.4913054 L16.6074748,33.1953054 L22.2884748,40.4913054 L25.5184748,40.4913054 L25.5184748,27.1913054 L21.8704748,27.1913054 L21.8704748,34.2213054 L16.3984748,27.1913054 L12.9594748,27.1913054 L12.9594748,40.4913054 Z M31.1234748,40.4913054 L34.8094748,40.4913054 L34.8094748,30.4213054 L38.7994748,30.4213054 L38.7994748,27.1913054 L27.1334748,27.1913054 L27.1334748,30.4213054 L31.1234748,30.4213054 L31.1234748,40.4913054 Z M40.4144748,40.4913054 L51.2064748,40.4913054 L51.2064748,37.3563054 L44.0624748,37.3563054 L44.0624748,35.2473054 L50.4464748,35.2473054 L50.4464748,32.3403054 L44.0624748,32.3403054 L44.0624748,30.3263054 L51.1114748,30.3263054 L51.1114748,27.1913054 L40.4144748,27.1913054 L40.4144748,40.4913054 Z M53.0874748,40.4913054 L53.0874748,27.1913054 L59.3764748,27.1913054 C61.4094748,27.1913054 62.8154748,27.7233054 63.7084748,28.6353054 C64.4874748,29.3953054 64.8864748,30.4213054 64.8864748,31.7323054 L64.8864748,31.7703054 C64.8864748,33.8033054 63.8034748,35.1523054 62.1504748,35.8553054 L65.3234748,40.4913054 L61.0674748,40.4913054 L58.3884748,36.4633054 L56.7734748,36.4633054 L56.7734748,40.4913054 L53.0874748,40.4913054 Z M56.7734748,33.5753054 L59.2054748,33.5753054 C60.4594748,33.5753054 61.1814748,32.9673054 61.1814748,31.9983054 L61.1814748,31.9603054 C61.1814748,30.9153054 60.4214748,30.3833054 59.1864748,30.3833054 L56.7734748,30.3833054 L56.7734748,33.5753054 Z M75.2604748,40.4913054 L78.9464748,40.4913054 L78.9464748,30.4213054 L82.9364748,30.4213054 L82.9364748,27.1913054 L71.2704748,27.1913054 L71.2704748,30.4213054 L75.2604748,30.4213054 L75.2604748,40.4913054 Z M84.5514748,40.4913054 L88.2374748,40.4913054 L88.2374748,35.4373054 L92.9684748,35.4373054 L92.9684748,40.4913054 L96.6544748,40.4913054 L96.6544748,27.1913054 L92.9684748,27.1913054 L92.9684748,32.1693054 L88.2374748,32.1693054 L88.2374748,27.1913054 L84.5514748,27.1913054 L84.5514748,40.4913054 Z M99.0104748,40.4913054 L109.802475,40.4913054 L109.802475,37.3563054 L102.658475,37.3563054 L102.658475,35.2473054 L109.042475,35.2473054 L109.042475,32.3403054 L102.658475,32.3403054 L102.658475,30.3263054 L109.707475,30.3263054 L109.707475,27.1913054 L99.0104748,27.1913054 L99.0104748,40.4913054 Z M116.946475,40.4913054 L120.632475,40.4913054 L120.632475,35.7413054 L126.921475,35.7413054 L126.921475,32.6823054 L120.632475,32.6823054 L120.632475,30.4213054 L127.586475,30.4213054 L127.586475,27.1913054 L116.946475,27.1913054 L116.946475,40.4913054 Z M129.334475,40.4913054 L133.039475,40.4913054 L133.039475,27.1913054 L129.334475,27.1913054 L129.334475,40.4913054 Z M135.471475,40.4913054 L139.119475,40.4913054 L139.119475,33.1953054 L144.800475,40.4913054 L148.030475,40.4913054 L148.030475,27.1913054 L144.382475,27.1913054 L144.382475,34.2213054 L138.910475,27.1913054 L135.471475,27.1913054 L135.471475,40.4913054 Z M149.322475,40.4913054 L154.984475,27.0963054 L158.537475,27.0963054 L164.199475,40.4913054 L160.247475,40.4913054 L159.278475,38.1163054 L154.148475,38.1163054 L153.198475,40.4913054 L149.322475,40.4913054 Z M155.231475,35.2473054 L158.214475,35.2473054 L156.732475,31.4663054 L155.231475,35.2473054 Z M165.491475,40.4913054 L175.618475,40.4913054 L175.618475,37.2613054 L169.177475,37.2613054 L169.177475,27.1913054 L165.491475,27.1913054 L165.491475,40.4913054 Z" id="path-7"></path>
        <filter x="-0.3%" y="-3.7%" width="100.6%" height="114.9%" filterUnits="objectBoundingBox" id="filter-8">
            <feOffset dx="0" dy="1" in="SourceAlpha" result="shadowOffsetOuter1"></feOffset>
            <feColorMatrix values="0 0 0 0 0   0 0 0 0 0   0 0 0 0 0  0 0 0 0.5 0" type="matrix" in="shadowOffsetOuter1"></feColorMatrix>
        </filter>
        <path d="M25.5564748,66.4913054 L25.5564748,53.1913054 L31.2564748,53.1913054 C34.6194748,53.1913054 36.7854748,54.9203054 36.7854748,57.8653054 L36.7854748,57.9033054 C36.7854748,61.0383054 34.3724748,62.6913054 31.0664748,62.6913054 L29.2424748,62.6913054 L29.2424748,66.4913054 L25.5564748,66.4913054 Z M29.2424748,59.8033054 L30.9904748,59.8033054 C32.3014748,59.8033054 33.0994748,59.1193054 33.0994748,58.0743054 L33.0994748,58.0363054 C33.0994748,56.8963054 32.3014748,56.2883054 30.9714748,56.2883054 L29.2424748,56.2883054 L29.2424748,59.8033054 Z M38.3434748,66.4913054 L38.3434748,53.1913054 L44.6324748,53.1913054 C46.6654748,53.1913054 48.0714748,53.7233054 48.9644748,54.6353054 C49.7434748,55.3953054 50.1424748,56.4213054 50.1424748,57.7323054 L50.1424748,57.7703054 C50.1424748,59.8033054 49.0594748,61.1523054 47.4064748,61.8553054 L50.5794748,66.4913054 L46.3234748,66.4913054 L43.6444748,62.4633054 L42.0294748,62.4633054 L42.0294748,66.4913054 L38.3434748,66.4913054 Z M42.0294748,59.5753054 L44.4614748,59.5753054 C45.7154748,59.5753054 46.4374748,58.9673054 46.4374748,57.9983054 L46.4374748,57.9603054 C46.4374748,56.9153054 45.6774748,56.3833054 44.4424748,56.3833054 L42.0294748,56.3833054 L42.0294748,59.5753054 Z M52.0804748,66.4913054 L55.7854748,66.4913054 L55.7854748,53.1913054 L52.0804748,53.1913054 L52.0804748,66.4913054 Z M57.7994748,66.4913054 L69.5604748,66.4913054 L69.5604748,63.3753054 L62.8914748,63.3753054 L69.5604748,55.8703054 L69.5604748,53.1913054 L58.0274748,53.1913054 L58.0274748,56.3073054 L64.4684748,56.3073054 L57.7994748,63.8123054 L57.7994748,66.4913054 Z M71.4794748,66.4913054 L82.2714748,66.4913054 L82.2714748,63.3563054 L75.1274748,63.3563054 L75.1274748,61.2473054 L81.5114748,61.2473054 L81.5114748,58.3403054 L75.1274748,58.3403054 L75.1274748,56.3263054 L82.1764748,56.3263054 L82.1764748,53.1913054 L71.4794748,53.1913054 L71.4794748,66.4913054 Z M89.4154748,66.4913054 L89.4154748,53.1913054 L94.5454748,53.1913054 C99.2954748,53.1913054 102.050475,55.9273054 102.050475,59.7653054 L102.050475,59.8033054 C102.050475,63.6413054 99.2574748,66.4913054 94.4694748,66.4913054 L89.4154748,66.4913054 Z M93.1014748,63.2233054 L94.6024748,63.2233054 C96.8064748,63.2233054 98.2694748,62.0073054 98.2694748,59.8603054 L98.2694748,59.8223054 C98.2694748,57.6943054 96.8064748,56.4593054 94.6024748,56.4593054 L93.1014748,56.4593054 L93.1014748,63.2233054 Z M103.950475,66.4913054 L103.950475,53.1913054 L110.239475,53.1913054 C112.272475,53.1913054 113.678475,53.7233054 114.571475,54.6353054 C115.350475,55.3953054 115.749475,56.4213054 115.749475,57.7323054 L115.749475,57.7703054 C115.749475,59.8033054 114.666475,61.1523054 113.013475,61.8553054 L116.186475,66.4913054 L111.930475,66.4913054 L109.251475,62.4633054 L107.636475,62.4633054 L107.636475,66.4913054 L103.950475,66.4913054 Z M107.636475,59.5753054 L110.068475,59.5753054 C111.322475,59.5753054 112.044475,58.9673054 112.044475,57.9983054 L112.044475,57.9603054 C112.044475,56.9153054 111.284475,56.3833054 110.049475,56.3833054 L107.636475,56.3833054 L107.636475,59.5753054 Z M116.300475,66.4913054 L121.962475,53.0963054 L125.515475,53.0963054 L131.177475,66.4913054 L127.225475,66.4913054 L126.256475,64.1163054 L121.126475,64.1163054 L120.176475,66.4913054 L116.300475,66.4913054 Z M122.209475,61.2473054 L125.192475,61.2473054 L123.710475,57.4663054 L122.209475,61.2473054 Z M134.312475,66.5863054 L129.866475,53.1913054 L133.761475,53.1913054 L136.079475,60.8863054 L138.644475,53.1533054 L141.817475,53.1533054 L144.382475,60.8863054 L146.700475,53.1913054 L150.519475,53.1913054 L146.073475,66.5863054 L142.862475,66.5863054 L140.183475,58.9293054 L137.523475,66.5863054 L134.312475,66.5863054 Z" id="path-9"></path>
        <filter x="-0.4%" y="-3.7%" width="100.8%" height="114.8%" filterUnits="objectBoundingBox" id="filter-10">
            <feOffset dx="0" dy="1" in="SourceAlpha" result="shadowOffsetOuter1"></feOffset>
            <feColorMatrix values="0 0 0 0 0   0 0 0 0 0   0 0 0 0 0  0 0 0 0.5 0" type="matrix" in="shadowOffsetOuter1"></feColorMatrix>
        </filter>
    </defs>
    <g id="Page-1" stroke="none" stroke-width="1" fill="none" fill-rule="evenodd">
        <g id="sign" transform="translate(-5.000000, -39.000000)">
            <mask id="mask-2" fill="white">
                <use xlink:href="#path-1"></use>
            </mask>
            <g id="path-1"></g>
            <g id="Group" mask="url(#mask-2)">
                <g transform="translate(-2.000000, 26.000000)" id="Group-Clipped">
                    <g>
                        <mask id="mask-4" fill="white">
                            <use xlink:href="#path-3"></use>
                        </mask>
                        <g id="path-3"></g>
                        <g id="Group" mask="url(#mask-4)">
                            <g transform="translate(-14.000000, -1.000000)">
                                <g transform="translate(118.325039, 144.236218) rotate(9.000000) translate(-118.325039, -144.236218) translate(19.325039, 14.736218)">
                                    <path d="M80,129 L83,129 L83,154.018936 L84.4161264,156.882325 L83,160.049615 L83,195.609199 C83,195.609199 85.4185996,197.838578 85.4185996,199.247084 C85.4185996,200.65559 83,203.667141 83,203.667141 L83,256 L80,256 L80,203.148756 L80.7747815,199.982592 L80,195.090814 L80,158.595427 L80.6672942,156.463616 L80,154.48824 L80,129 Z" id="Rectangle-7-Copy-9" fill="#5E4024"></path>
                                    <polygon id="Rectangle-7-Copy-8" fill="#5E4024" points="80.1564345 2.98768834 83.1564345 0.987688341 83.1564345 14.9876883 80.1564345 14.9876883"></polygon>
                                    <polygon id="Rectangle-7-Copy-5" fill="#B07645" points="83 129 120 129 120 161.25 119 168.160714 120 175.071429 120 258 83 258 83 202.679452 84.4309112 199.403518 83 195.609199 83 158.126124 84.7744821 156.825567 83 155.163059"></polygon>
                                    <path d="M1,17 L5.52946184,14.4695806 L11,14 L10.9923458,132.062765 L4.90978132,132.013683 L0.333290095,128.688667 L0.41777834,114.535016 L2.45591143,110.128105 C2.45591143,110.128105 0.832395611,108.02402 0.842485227,106.333786 C0.852574843,104.643552 0.695219476,68.0574845 0.695219476,68.0574845 C0.695219476,68.0574845 1.49416876,66.527988 1.49892501,65.7312112 C1.50368126,64.9344344 0.723499196,63.3200053 0.723499196,63.3200053 L0.881848232,36.7930366 L2.41915217,33.1865775 L0.914731164,31.2844175 L1,17 Z" id="Rectangle-7" fill="#5E4024"></path>
                                    <polygon id="Rectangle-7-Copy-6" fill="#37362B" opacity="0.792742301" points="80 129 120 129 120 134 79.8268506 138.372357"></polygon>
                                    <path d="M83.1564345,0.987688341 L102.635788,1.11437971 C110.537295,-0.137096005 120.156434,0.987688341 120.156434,0.987688341 L120.156434,14.9876883 L83.1564345,14.9876883 L83.1564345,0.987688341 Z" id="Rectangle-7-Copy-7" fill="#B07645"></path>
                                    <path d="M5,14 L33,14 L42,15 L50,14 L143,14 L147,15 L151,14 L198,14 L198,26 C198,26 196,28.84375 196,30 C196,31.15625 198,32 198,32 L198,51 L196,56 L198,58 L198,119 L196,122 L198,124 L198,132 L45,132 L39,131 L33,132 L5,132 L5,115 L7,110 L5,107 L5,67 L7,66 L5,64 L5,35 L7,32 L5,31 L5,14 Z" id="Rectangle-7-Copy" fill="#B07645"></path>
                                    <path d="M40.1020404,91.0000004 C40.1020404,91.0000004 38.6020404,105 39.1020404,108 C39.6020404,111 40.1020404,129 40.1020404,129 C40.1020404,129 43.1020404,106 43.1020404,101 C43.1020404,96.0000004 40.1020404,91.0000004 40.1020404,91.0000004 Z" id="Path-3-Copy-2" fill="#C78A56" transform="translate(41.051020, 110.000000) rotate(90.000000) translate(-41.051020, -110.000000) "></path>
                                    <path d="M160.10204,11.0000006 C160.10204,11.0000006 158.60204,25.0000006 159.10204,28.0000006 C159.60204,31.0000006 160.10204,49.0000006 160.10204,49.0000006 C160.10204,49.0000006 163.10204,26.0000006 163.10204,21.0000006 C163.10204,16.0000006 160.10204,11.0000006 160.10204,11.0000006 Z" id="Path-3-Copy-3" fill="#C78A56" transform="translate(161.051020, 30.000001) rotate(90.000000) translate(-161.051020, -30.000001) "></path>
                                    <path d="M144.550492,104.584985 C144.550492,104.584985 143.050492,118.584985 143.550492,121.584985 C144.050492,124.584985 144.550492,142.584985 144.550492,142.584985 C144.550492,142.584985 147.550492,119.584985 147.550492,114.584985 C147.550492,109.584985 144.550492,104.584985 144.550492,104.584985 Z" id="Path-3-Copy-6" fill="#C78A56" transform="translate(145.499472, 123.584985) rotate(90.000000) translate(-145.499472, -123.584985) "></path>
                                    <path d="M145.625647,48.4489801 C145.625647,48.4489801 144.162961,80.5016117 144.650523,87.3700327 C145.138085,94.2384538 145.625647,135.44898 145.625647,135.44898 C145.625647,135.44898 148.55102,82.7910854 148.55102,71.3437169 C148.55102,59.8963485 145.625647,48.4489801 145.625647,48.4489801 Z" id="Path-3-Copy-4" fill="#C78A56" transform="translate(146.551020, 91.948980) rotate(90.000000) translate(-146.551020, -91.948980) "></path>
                                    <path d="M44.3314806,-12.5255096 C44.3314806,-12.5255096 43.2344656,12.508325 43.6001373,17.8727181 C43.9658089,23.2371112 44.3314806,55.42347 44.3314806,55.42347 C44.3314806,55.42347 46.5255104,14.296456 46.5255104,5.35580082 C46.5255104,-3.58485438 44.3314806,-12.5255096 44.3314806,-12.5255096 Z" id="Path-3-Copy-5" fill="#C78A56" transform="translate(45.025510, 21.448980) rotate(90.000000) translate(-45.025510, -21.448980) "></path>
                                    <g id="CLICK-HERE-TO-ENTER" transform="translate(13.000000, 31.000000)">
                                        <g id="text-6-link" transform="translate(0.000000, 0.000000)">
                                            <g id="CLICK-HERE-TO">
                                                <use fill="black" fill-opacity="1" filter="url(#filter-6)" xlink:href="#path-5"></use>
                                                <use fill="#FFFFFF" fill-rule="evenodd" xlink:href="#path-5"></use>
                                            </g>
                                            <g id="ENTER-THE-FINAL">
                                                <use fill="black" fill-opacity="1" filter="url(#filter-8)" xlink:href="#path-7"></use>
                                                <use fill="#FFFFFF" fill-rule="evenodd" xlink:href="#path-7"></use>
                                            </g>
                                            <g id="PRIZE-DRAW">
                                                <use fill="black" fill-opacity="1" filter="url(#filter-10)" xlink:href="#path-9"></use>
                                                <use fill="#FFFFFF" fill-rule="evenodd" xlink:href="#path-9"></use>
                                            </g>
                                        </g>
                                    </g>
                                    <path d="M95.1020408,153 C95.1020408,153 93.6020408,167 94.1020408,170 C94.6020408,173 95.1020408,191 95.1020408,191 C95.1020408,191 98.1020408,168 98.1020408,163 C98.1020408,158 95.1020408,153 95.1020408,153 Z" id="Path-3" fill="#C78A56"></path>
                                    <path d="M108.102041,178 C108.102041,178 106.602041,203.789474 107.102041,209.315789 C107.602041,214.842105 108.102041,248 108.102041,248 C108.102041,248 111.102041,205.631579 111.102041,196.421053 C111.102041,187.210526 108.102041,178 108.102041,178 Z" id="Path-3-Copy" fill="#C78A56"></path>
                                </g>
                            </g>
                        </g>
                    </g>
                </g>
            </g>
        </g>
    </g>
</svg>